<svg width="100" height="100" xmlns="http://www.w3.org/2000/svg"><g fill="none"><path opacity=".4" d="M65.638 8.833H28.022c-16.303 0-26.085 9.734-26.085 26.085v37.569c0 16.397 9.782 26.132 26.085 26.132h37.569c16.35 0 26.085-9.735 26.085-26.085V34.918c.048-16.35-9.734-26.085-26.038-26.085z" fill="#cefaff"/><path d="M91.817 8.738c-8.459-8.506-16.729-8.695-25.424 0l-5.34 5.293a1.726 1.726 0 00-.425 1.748 35.441 35.441 0 0024.148 24.148c.17.04.345.055.52.047.477 0 .935-.186 1.276-.52l5.245-5.292a18.161 18.161 0 006.427-12.617 18.535 18.535 0 00-6.427-12.807zM76.886 43.897a37.766 37.766 0 01-3.64-1.938 35.513 35.513 0 01-2.787-1.843A24.658 24.658 0 0168 38.226a4.853 4.853 0 01-.756-.662 34.013 34.013 0 01-4.489-4.536 3.622 3.622 0 01-.614-.804 17.614 17.614 0 01-1.796-2.41 22.565 22.565 0 01-1.701-2.599 37.172 37.172 0 01-1.89-3.591 44.297 44.297 0 01-1.513-3.733L29.82 45.314a14.507 14.507 0 00-3.592 7.089l-2.032 14.082a8.847 8.847 0 002.221 7.608 8.375 8.375 0 006.049 2.363c.52 0 1.04-.047 1.56-.094l14.034-1.985a14.12 14.12 0 007.089-3.592l25.424-25.423c-1.2-.378-2.363-.898-3.686-1.465z" fill="#023056"/></g></svg>