<svg width="100" height="100" xmlns="http://www.w3.org/2000/svg"><path d="M69.924 3.183H30.487a25.03 25.03 0 00-27.23 27.23v39.438a25.033 25.033 0 0027.23 27.23h39.437a25.03 25.03 0 0027.23-27.23V30.414a25.03 25.03 0 00-27.23-27.23zm6.707 61.168a8.667 8.667 0 010 12.207 8.92 8.92 0 01-12.207 0l-14.218-14.22-14.085 14.22a8.92 8.92 0 01-12.207 0 8.665 8.665 0 010-12.207l14.219-14.219-14.219-14.084A8.632 8.632 0 0136.121 23.84L50.206 38.06l14.218-14.22a8.632 8.632 0 0112.207 12.208L62.412 50.132z" fill="#cb4e6c"/></svg>